<svg width="37" height="25" viewBox="0 0 37 25" fill="none" xmlns="http://www.w3.org/2000/svg">
<path fill-rule="evenodd" clip-rule="evenodd" d="M18.3943 0C21.8073 0 24.5636 2.76069 24.5636 6.16925C24.5636 7.88624 24.0287 10.1796 22.9766 11.989C21.9241 13.7984 20.4147 15.0989 18.3943 15.0989C16.3764 15.0989 14.868 13.7984 13.8161 11.989C12.7643 10.1796 12.2295 7.88664 12.2295 6.16925C12.2295 2.76061 14.9861 0 18.3941 0H18.3943Z" fill="#92A8FF"/>
<path fill-rule="evenodd" clip-rule="evenodd" d="M9.7266 0.382696C10.9791 0.382696 12.1167 0.860396 12.9712 1.64493C11.9471 2.87235 11.3299 4.45024 11.3299 6.16915C11.3299 7.63432 11.6634 9.39561 12.3434 11.0319C11.6282 11.7564 10.773 12.203 9.72684 12.203C8.159 12.203 6.98842 11.1973 6.16181 9.77583C5.3352 8.35432 4.91309 6.54182 4.91309 5.19637C4.91309 2.53056 7.06103 0.382294 9.72684 0.382294L9.7266 0.382696Z" fill="#92A8FF"/>
<path fill-rule="evenodd" clip-rule="evenodd" d="M27.0908 0.38269C29.7519 0.38269 31.9045 2.53128 31.9045 5.19676C31.9045 6.54221 31.4812 8.35472 30.6542 9.77623C29.827 11.1977 28.6561 12.2036 27.0908 12.2036C26.0337 12.2036 25.1743 11.7517 24.4567 11.0193C25.1335 9.38676 25.4651 7.63054 25.4651 6.16947C25.4651 4.45497 24.8511 2.88054 23.8311 1.65473C24.6869 0.864532 25.8286 0.383092 27.0908 0.383092V0.38269Z" fill="#92A8FF"/>
<path fill-rule="evenodd" clip-rule="evenodd" d="M24.0586 11.885C24.872 12.6181 25.8927 13.1046 27.0903 13.1046C28.0655 13.1046 28.9179 12.7845 29.6418 12.2669C29.671 12.3492 29.7046 12.4296 29.7442 12.5066C29.8865 12.7852 30.1223 13.0314 30.4314 13.1507V13.1511H30.4342C31.3374 13.494 32.7794 13.5609 34.1151 13.9783C35.372 14.3712 36.4307 14.9805 36.813 16.2716C35.2247 17.6488 33.3547 18.6206 31.3657 19.1884C30.6205 17.58 29.0777 16.7242 27.5369 16.2424C25.7012 15.6685 23.7511 15.5194 22.9678 15.2225V15.2222H22.9672C22.8299 15.1704 22.7363 15.0853 22.6402 14.8987C22.5554 14.7338 22.486 14.4917 22.4424 14.1883C22.9465 13.6732 23.3849 13.078 23.7552 12.4412C23.8613 12.2587 23.9622 12.0728 24.0583 11.884L24.0586 11.885Z" fill="#92A8FF"/>
<path fill-rule="evenodd" clip-rule="evenodd" d="M12.7413 11.8963C12.8355 12.0813 12.9344 12.2634 13.0384 12.4422C13.393 13.0521 13.8097 13.6243 14.2871 14.1243C14.2488 14.4566 14.1841 14.7277 14.1034 14.9083C14.0132 15.1099 13.9291 15.1853 13.8289 15.2226L13.8286 15.223C13.8279 15.223 13.8276 15.2233 13.827 15.2233C13.0437 15.5201 11.0936 15.6693 9.2579 16.2431C7.7186 16.7242 6.17777 17.5788 5.43156 19.1837C3.44635 18.6152 1.58328 17.6454 0 16.2726C0.384105 14.9814 1.44314 14.3718 2.69942 13.979C4.03425 13.5616 5.47514 13.4947 6.37846 13.1517V13.152H6.38128C6.69001 13.0327 6.92651 12.7877 7.06973 12.5088C7.10961 12.4312 7.14322 12.3508 7.17274 12.2679C7.8973 12.7858 8.74999 13.1059 9.72679 13.1059C10.9149 13.1059 11.9303 12.6241 12.7412 11.8977L12.7413 11.8963Z" fill="#92A8FF"/>
<path fill-rule="evenodd" clip-rule="evenodd" d="M15.076 14.8358C16.006 15.5522 17.1146 15.9995 18.3961 15.9995C19.6558 15.9995 20.7485 15.567 21.669 14.8729C21.7145 15.0271 21.7701 15.1738 21.8408 15.311C22.0116 15.6433 22.2871 15.9276 22.6496 16.0648C23.7441 16.4794 25.572 16.5714 27.2689 17.1018C28.8886 17.6081 30.2815 18.4187 30.7585 20.1348C23.9196 26.1182 12.8771 26.1185 6.03809 20.1348C6.51485 18.4184 7.90776 17.6081 9.5277 17.1015C11.224 16.5713 13.0509 16.479 14.1458 16.0647C14.1461 16.0647 14.1468 16.0644 14.1468 16.0647H14.1471C14.5142 15.9265 14.7721 15.6194 14.926 15.2755C14.9879 15.1373 15.0365 14.9903 15.0761 14.8358L15.076 14.8358Z" fill="#92A8FF"/>
</svg>
