<svg width="35" height="35" viewBox="0 0 35 35" fill="none" xmlns="http://www.w3.org/2000/svg">
<path d="M25 22H23.42L22.86 21.46C24.8878 19.108 26.0022 16.1054 26 13C26 10.4288 25.2376 7.91543 23.8091 5.77759C22.3807 3.63975 20.3503 1.97351 17.9749 0.989572C15.5995 0.0056327 12.9856 -0.251811 10.4638 0.249797C7.94208 0.751405 5.6257 1.98953 3.80762 3.80762C1.98953 5.6257 0.751405 7.94208 0.249797 10.4638C-0.251811 12.9856 0.0056327 15.5995 0.989572 17.9749C1.97351 20.3503 3.63975 22.3807 5.77759 23.8091C7.91543 25.2376 10.4288 26 13 26C16.22 26 19.18 24.82 21.46 22.86L22 23.42V25L32 34.98L34.98 32L25 22ZM13 22C8.02001 22 4.00001 17.98 4.00001 13C4.00001 8.02001 8.02001 4.00001 13 4.00001C17.98 4.00001 22 8.02001 22 13C22 17.98 17.98 22 13 22Z" fill="#F0F0F0"/>
</svg>
